<?xml version="1.0" encoding="UTF-8" standalone="no"?> <!-- Created with Vectornator for iOS (http://vectornator.io/) --><!DOCTYPE svg PUBLIC "-//W3C//DTD SVG 1.1//EN" "http://www.w3.org/Graphics/SVG/1.1/DTD/svg11.dtd">
<svg height="100%" version="1.1" viewBox="0 0 1024 1024">
<defs/>
<g id="Layer 1" >
<path stroke="#000000" stroke-width="100" d="M255.758+396.713C255.758+302.01+332.53+225.237+427.233+225.237C521.937+225.237+598.709+302.01+598.709+396.713C598.709+491.416+521.937+568.189+427.233+568.189C332.53+568.189+255.758+491.416+255.758+396.713Z" fill="none" stroke-linecap="round" opacity="1" stroke-linejoin="round"/>
<path stroke="#000000" stroke-width="100" d="M546.417+532.497L746.128+733.252L732.829+746.482L533.119+545.726L546.417+532.497Z" fill="none" stroke-linecap="round" opacity="1" stroke-linejoin="miter"/>
<path stroke="#000000" stroke-width="100" d="M55.5925+512.103C55.5925+258.963+260.803+53.7522+513.943+53.7522C767.083+53.7522+972.294+258.963+972.294+512.103C972.294+765.243+767.083+970.454+513.943+970.454C260.803+970.454+55.5925+765.243+55.5925+512.103Z" fill="none" stroke-linecap="round" opacity="1" stroke-linejoin="round"/>
</g>
</svg>
